<svg id="Layer_1" data-name="Layer 1" xmlns="http://www.w3.org/2000/svg" xmlns:xlink="http://www.w3.org/1999/xlink" viewBox="0 0 94.17 89.28"><defs><style>.cls-1{fill:none;}.cls-13,.cls-2{fill:#696cff;}.cls-3{opacity:0.7;}.cls-4,.cls-5,.cls-7{fill:#fff;}.cls-10,.cls-13,.cls-5,.cls-7,.cls-8{isolation:isolate;}.cls-5{opacity:0.8;}.cls-6{fill:#263238;}.cls-7{opacity:0.3;}.cls-8{opacity:0.2;}.cls-9{clip-path:url(#clip-path);}.cls-10,.cls-13{opacity:0.5;}.cls-11{clip-path:url(#clip-path-2);}.cls-12{clip-path:url(#clip-path-3);}.cls-14{clip-path:url(#clip-path-4);}.cls-15{clip-path:url(#clip-path-5);}.cls-16{fill:#336aea;}.cls-17{fill:#17d1c6;}.cls-18{fill:#1c1c1c;}.cls-19{fill:#1d1d1b;}.cls-20{fill:#87e64b;}.cls-21{fill:#534cda;}</style><clipPath id="clip-path" transform="translate(-3.11 -6.39)"><polygon class="cls-1" points="25.26 51.36 18.74 49.23 18.16 47.7 16.83 47.65 14.43 47.2 14.72 47.7 17.74 49.89 18.49 50.26 25.31 53.82 25.26 51.36"/></clipPath><clipPath id="clip-path-2" transform="translate(-3.11 -6.39)"><polygon class="cls-1" points="18.16 47.7 17.53 47.32 16.29 47.78 16.5 48.02 18.16 47.7"/></clipPath><clipPath id="clip-path-3" transform="translate(-3.11 -6.39)"><path class="cls-1" d="M26.64,37.54A3.52,3.52,0,0,0,26.79,39a28.21,28.21,0,0,0,1.65,2.51L25.83,43.6s-1.08-2.17-1.29-2.53a3.61,3.61,0,0,1,.22-3C25.43,37,26.4,36.74,26.64,37.54Z"/></clipPath><clipPath id="clip-path-4" transform="translate(-3.11 -6.39)"><path class="cls-1" d="M27.45,35.91c-.16-1-1.3-3-3.1-2.93a4.42,4.42,0,0,0-2.22.58,6.38,6.38,0,0,0-1.15.86c-.88,1-1.18,1.34-1,2.15a2.39,2.39,0,0,0,.14,1,8.24,8.24,0,0,0,.69,1.53c-.07.33-.26,1.21-.27,1.42s.6.06.9,0a4.88,4.88,0,0,0,1.93,2.25c.56.17,1.45-.75,1.92-1.47s.12-1.52.12-1.84,1.06-1,1.45-1.25A2.49,2.49,0,0,0,27.45,35.91Z"/></clipPath><clipPath id="clip-path-5" transform="translate(-3.11 -6.39)"><path class="cls-1" d="M29.61,43A4,4,0,0,1,31,46.2a22.59,22.59,0,0,1-.32,3.53c-.22,1.63-1.64,6.91-2.74,7.55s-2.81-.57-2.81-.57l-8.26-5.49-2-1.61-1-1.87.31-.6L16.67,49,15.36,47.8l.25-.33.48.33,1.38.52.31,2,.43.3,7.9,2.88s-.1-4.25,0-5.06a10.63,10.63,0,0,1,1-4.35"/></clipPath></defs><g id="freepik--background-simple--inject-1--inject-4"><path class="cls-2" d="M82,29.41C77,18.18,65.22,14,55.89,21.49c-3.64,3-5.92,7.63-10.38,9.51-4.18,1.76-9.48,1.24-14,2.19-9.64,2-22.61,9.69-21.62,21.49.43,5.17,3.92,10.92,5.64,15.76C17.5,76,18.69,83,23.93,86.3c9,5.71,19.82,1,27.92-3.57,4.35-2.47,6.75-4,11.44-3.15,4.34.79,8.25,3.57,12.5.28,3.18-2.47,3.45-7.47,6.12-10.41,3-3.31,6.07-3.55,7.63-8.53,1.9-6-.89-9.81-2.79-15.2S84.29,34.7,82,29.41Z" transform="translate(-3.11 -6.39)"/><g class="cls-3"><path class="cls-4" d="M82,29.41C77,18.18,65.22,14,55.89,21.49c-3.64,3-5.92,7.63-10.38,9.51-4.18,1.76-9.48,1.24-14,2.19-9.64,2-22.61,9.69-21.62,21.49.43,5.17,3.92,10.92,5.64,15.76C17.5,76,18.69,83,23.93,86.3c9,5.71,19.82,1,27.92-3.57,4.35-2.47,6.75-4,11.44-3.15,4.34.79,8.25,3.57,12.5.28,3.18-2.47,3.45-7.47,6.12-10.41,3-3.31,6.07-3.55,7.63-8.53,1.9-6-.89-9.81-2.79-15.2S84.29,34.7,82,29.41Z" transform="translate(-3.11 -6.39)"/></g></g><g id="freepik--Shadow--inject-1--inject-4"><ellipse class="cls-2" cx="41.37" cy="87.37" rx="30.61" ry="1.91"/><ellipse class="cls-5" cx="41.37" cy="87.37" rx="30.61" ry="1.91"/></g><g id="freepik--Device--inject-1--inject-4"><rect class="cls-6" x="29.75" y="14.87" width="38.47" height="72.66" rx="3.85"/><rect class="cls-4" x="31.46" y="22.85" width="35.05" height="56.7"/><path class="cls-6" d="M69.75,86.08H34.44v-57H69.75Zm-35-.26H69.49V29.38H34.71Z" transform="translate(-3.11 -6.39)"/><circle class="cls-2" cx="48.99" cy="40.44" r="7.6"/><path class="cls-2" d="M62.07,82.38H42.13a.34.34,0,0,1-.35-.33h0a.34.34,0,0,1,.34-.34h20a.34.34,0,0,1,.34.34h0a.34.34,0,0,1-.34.34Z" transform="translate(-3.11 -6.39)"/><rect class="cls-2" x="37.57" y="52.31" width="22.83" height="4.09" rx="0.79"/><rect class="cls-2" x="37.57" y="59.96" width="22.83" height="4.09" rx="0.79"/><path class="cls-6" d="M55.88,50.62l-2.23-1.28V48.27a3.47,3.47,0,0,0,.68-1.34.69.69,0,0,0,.24,0c.28,0,.46-.86.48-1.48a.9.9,0,0,0-.11-1.08,1.84,1.84,0,0,0,.3-.91c.12-.73-.42-.43-.85-1.1S53.66,41,52.26,41a1.93,1.93,0,0,0-1.82,1.16,4.55,4.55,0,0,0-1,.12c-.43.12-.55,1.52-.18,2.07a2.1,2.1,0,0,1,.25,1c-.1-.12-.2-.15-.25.12a2.69,2.69,0,0,0,.36,1.45l.26-.07a3.44,3.44,0,0,0,.71,1.43v1.07l-2.23,1.28a1.71,1.71,0,0,0-.86,1.49v.74a7.59,7.59,0,0,0,9.28,0v-.74A1.73,1.73,0,0,0,55.88,50.62Z" transform="translate(-3.11 -6.39)"/><path class="cls-6" d="M43.57,69.43a.21.21,0,0,1-.19-.19.23.23,0,0,1,0-.11l.35-.57-.69,0a.2.2,0,0,1-.15-.06.21.21,0,0,1,0-.26.2.2,0,0,1,.15-.06l.68,0-.35-.57a.17.17,0,0,1,0-.1.21.21,0,0,1,.2-.2.17.17,0,0,1,.16.11l.34.61.33-.61a.18.18,0,0,1,.17-.11.2.2,0,0,1,.14.06.24.24,0,0,1,0,.14.36.36,0,0,1,0,.1l-.36.57.69,0a.17.17,0,0,1,.14.06.17.17,0,0,1,0,.26.17.17,0,0,1-.14.06l-.7,0,.35.57a.19.19,0,0,1,0,.1.2.2,0,0,1-.2.2.15.15,0,0,1-.15-.1l-.34-.6-.32.6A.19.19,0,0,1,43.57,69.43Z" transform="translate(-3.11 -6.39)"/><path class="cls-6" d="M46.78,69.43a.21.21,0,0,1-.19-.19.23.23,0,0,1,0-.11l.35-.57-.69,0a.18.18,0,0,1-.14-.06.17.17,0,0,1,0-.26.2.2,0,0,1,.14-.06l.68,0-.35-.57a.17.17,0,0,1,0-.1.21.21,0,0,1,.2-.2.17.17,0,0,1,.16.11l.34.61.33-.61a.18.18,0,0,1,.17-.11.18.18,0,0,1,.14.06.19.19,0,0,1,0,.14.36.36,0,0,1,0,.1l-.36.57.7,0a.19.19,0,0,1,.14,0,.24.24,0,0,1,0,.13.17.17,0,0,1-.19.19l-.71,0,.35.56a.2.2,0,0,1-.17.31.19.19,0,0,1-.15-.11l-.33-.6-.33.6A.19.19,0,0,1,46.78,69.43Z" transform="translate(-3.11 -6.39)"/><path class="cls-6" d="M50,69.43a.2.2,0,0,1-.14-.06.16.16,0,0,1-.06-.13.23.23,0,0,1,0-.11l.35-.57-.69,0a.19.19,0,0,1-.19-.18.16.16,0,0,1,.05-.14.18.18,0,0,1,.14-.06l.68,0-.35-.57a.17.17,0,0,1,0-.1.25.25,0,0,1,.06-.14.2.2,0,0,1,.14-.06.17.17,0,0,1,.16.11l.34.61.33-.61a.2.2,0,0,1,.18-.11.16.16,0,0,1,.13.06.2.2,0,0,1,.06.14.19.19,0,0,1,0,.1l-.36.57.7,0a.18.18,0,0,1,.19.17,0,0,0,0,1,0,0,.15.15,0,0,1,0,.13.2.2,0,0,1-.15.06l-.7,0,.35.57a.19.19,0,0,1,0,.1.17.17,0,0,1-.06.14.18.18,0,0,1-.14.06.16.16,0,0,1-.15-.11l-.33-.59-.33.59A.18.18,0,0,1,50,69.43Z" transform="translate(-3.11 -6.39)"/><path class="cls-6" d="M53.21,69.43a.2.2,0,0,1-.14-.06.16.16,0,0,1-.06-.13.23.23,0,0,1,0-.11l.36-.57-.7,0a.2.2,0,0,1-.14-.06.19.19,0,0,1,0-.26.2.2,0,0,1,.14-.06l.69,0L53,67.67a.17.17,0,0,1,0-.1.21.21,0,0,1,.2-.2.17.17,0,0,1,.16.11l.33.61.34-.61a.18.18,0,0,1,.17-.11.16.16,0,0,1,.13.06.2.2,0,0,1,.06.14.19.19,0,0,1,0,.1l-.35.57.69,0a.19.19,0,0,1,.2.17v0a.19.19,0,0,1,0,.13.2.2,0,0,1-.14.06l-.7,0,.35.57a.19.19,0,0,1,0,.1.17.17,0,0,1-.07.14.16.16,0,0,1-.13.06.17.17,0,0,1-.16-.11l-.33-.59-.33.59A.18.18,0,0,1,53.21,69.43Z" transform="translate(-3.11 -6.39)"/><path class="cls-6" d="M56.42,69.43a.2.2,0,0,1-.14-.06.21.21,0,0,1,0-.24l.36-.57-.7,0a.2.2,0,0,1-.14-.06.19.19,0,0,1,0-.26.2.2,0,0,1,.14-.06l.69,0-.35-.57a.17.17,0,0,1,0-.1.2.2,0,0,1,.06-.14.16.16,0,0,1,.13-.06.18.18,0,0,1,.17.11l.33.61.34-.61a.18.18,0,0,1,.17-.11.16.16,0,0,1,.13.06.2.2,0,0,1,.06.14.19.19,0,0,1,0,.1l-.36.57.7,0a.19.19,0,0,1,.2.17v0a.19.19,0,0,1,0,.13.2.2,0,0,1-.14.06l-.7,0,.34.57a.19.19,0,0,1,0,.1.17.17,0,0,1-.06.14.16.16,0,0,1-.13.06.17.17,0,0,1-.16-.11l-.33-.59-.33.59A.18.18,0,0,1,56.42,69.43Z" transform="translate(-3.11 -6.39)"/><path class="cls-6" d="M59.63,69.43a.16.16,0,0,1-.13-.06.17.17,0,0,1-.07-.13.45.45,0,0,1,0-.11l.36-.57-.69,0a.19.19,0,0,1-.2-.17v0a.19.19,0,0,1,0-.13.2.2,0,0,1,.14-.06l.69,0-.35-.57a.17.17,0,0,1,0-.1.2.2,0,0,1,.06-.14.17.17,0,0,1,.29,0l.34.61.34-.61a.18.18,0,0,1,.17-.11.16.16,0,0,1,.13.06.2.2,0,0,1,.06.14.19.19,0,0,1,0,.1l-.36.57.7,0a.2.2,0,0,1,.14.06.15.15,0,0,1,0,.13.19.19,0,0,1,0,.13.2.2,0,0,1-.14.06l-.7,0,.35.57a.19.19,0,0,1,0,.1.2.2,0,0,1-.06.14.2.2,0,0,1-.14.06.17.17,0,0,1-.16-.11l-.33-.59-.33.59A.17.17,0,0,1,59.63,69.43Z" transform="translate(-3.11 -6.39)"/><rect class="cls-2" x="31.46" y="22.93" width="35.05" height="2.2"/><path class="cls-2" d="M55.91,25.28H48.29a.52.52,0,0,1-.52-.52h0a.52.52,0,0,1,.52-.52h7.62a.52.52,0,0,1,.52.52h0A.53.53,0,0,1,55.91,25.28Z" transform="translate(-3.11 -6.39)"/><path class="cls-6" d="M55.91,25.41H48.29a.65.65,0,1,1,0-1.3h7.62a.65.65,0,1,1,0,1.3Zm-7.62-1a.39.39,0,1,0,0,.77h7.62a.39.39,0,0,0,0-.77Z" transform="translate(-3.11 -6.39)"/><path class="cls-2" d="M54.18,89.15a2.08,2.08,0,1,0-2.09,2.08h0A2.08,2.08,0,0,0,54.18,89.15Z" transform="translate(-3.11 -6.39)"/><rect class="cls-2" x="47.93" y="81.71" width="2.11" height="2.11"/><path class="cls-6" d="M53.15,90.34h-2.1a.13.13,0,0,1-.14-.13V88.1a.13.13,0,0,1,.14-.13h2.1a.13.13,0,0,1,.13.13v2.11A.13.13,0,0,1,53.15,90.34Zm-2-.27H53V88.23H51.18Z" transform="translate(-3.11 -6.39)"/></g><g id="freepik--Plant--inject-1--inject-4"><path class="cls-2" d="M77.19,65.25s-2.76-7-.3-7.85,2.44,3.76,2.35,6C79,68.24,78.49,69.14,78.1,68Zm-.83,5.47c.76,1,1,0-.39-4.67-.65-2.18-2-6.58-4.18-4.93s2.84,7.33,2.84,7.33Zm-1.46,4c.72.64.73-.17-1-3.51-.81-1.57-2.51-4.74-3.91-3.17s3.23,5.19,3.23,5.19Zm-1.59,4.78c.73.64.74-.17-1-3.51-.8-1.57-2.51-4.74-3.9-3.17S71.65,78,71.65,78Zm4.58-9.73c-1.16.45-.24.94,4.59.93,2.26,0,6.89-.11,5.9-2.62s-7.82.66-7.82.66ZM76.57,73c-1.22.22-.42.88,4.32,1.83,2.22.44,6.77,1.26,6.3-1.39s-7.8-.91-7.8-.91ZM75.1,76.93c-1,.15-.38.73,3.6,1.64,1.87.43,5.7,1.23,5.37-1s-6.58-1-6.58-1ZM74,80.57c-1,.26-.3.76,3.76,1.25,1.9.22,5.8.61,5.23-1.6S76.33,80,76.33,80Zm6-14.73c-.6,1.33.64,1.13,4.83-2.53,2-1.71,5.9-5.31,2.78-7.09s-6.21,6.57-6.21,6.57ZM74.13,85.3c-.62.37,0,.51,2.87-.06,1.35-.27,4.1-.86,3.17-2s-4.58,1.24-4.58,1.24Z" transform="translate(-3.11 -6.39)"/><path class="cls-7" d="M77.19,65.25s-2.76-7-.3-7.85,2.44,3.76,2.35,6C79,68.24,78.49,69.14,78.1,68Zm-.83,5.47c.76,1,1,0-.39-4.67-.65-2.18-2-6.58-4.18-4.93s2.84,7.33,2.84,7.33Zm-1.46,4c.72.64.73-.17-1-3.51-.81-1.57-2.51-4.74-3.91-3.17s3.23,5.19,3.23,5.19Zm-1.59,4.78c.73.64.74-.17-1-3.51-.8-1.57-2.51-4.74-3.9-3.17S71.65,78,71.65,78Zm4.58-9.73c-1.16.45-.24.94,4.59.93,2.26,0,6.89-.11,5.9-2.62s-7.82.66-7.82.66ZM76.57,73c-1.22.22-.42.88,4.32,1.83,2.22.44,6.77,1.26,6.3-1.39s-7.8-.91-7.8-.91ZM75.1,76.93c-1,.15-.38.73,3.6,1.64,1.87.43,5.7,1.23,5.37-1s-6.58-1-6.58-1ZM74,80.57c-1,.26-.3.76,3.76,1.25,1.9.22,5.8.61,5.23-1.6S76.33,80,76.33,80Zm6-14.73c-.6,1.33.64,1.13,4.83-2.53,2-1.71,5.9-5.31,2.78-7.09s-6.21,6.57-6.21,6.57ZM74.13,85.3c-.62.37,0,.51,2.87-.06,1.35-.27,4.1-.86,3.17-2s-4.58,1.24-4.58,1.24Z" transform="translate(-3.11 -6.39)"/><path class="cls-2" d="M78.41,68.51l-.48-8m-1,10.64-3-6.88m10.89,4.88-7.29,1m-2.14,4.66L71.37,69.8M76,73.31l5.44.28M74.72,77.2l4.15.41m-5.16,2-2.06-3.1m1.83,4.2,4.88,0m-5.87,9.13a.12.12,0,0,0,.11-.13c-.31-4.67,1.5-12.32,4.39-18.59,1.85-4,9.11-11.9,9.19-12a.11.11,0,0,0,0-.17.14.14,0,0,0-.18,0h0c-.07.07-7.36,8-9.22,12C73.83,77.52,72,85,72.36,89.81A.13.13,0,0,0,72.49,89.93Zm5.92-21.29a.12.12,0,0,0,.11-.13l-.47-8a.12.12,0,0,0-.13-.12h0a.12.12,0,0,0-.12.13l.48,8a.13.13,0,0,0,.13.11Zm-1.48,2.63A.13.13,0,0,0,77,71.1l-3-6.88a.12.12,0,0,0-.16-.06.12.12,0,0,0-.06.16h0l3,6.88a.12.12,0,0,0,.11.08h.05Zm.53-1,7.28-1a.13.13,0,0,0,.12-.13.12.12,0,0,0-.12-.12h0l-7.29,1a.12.12,0,0,0-.11.13.12.12,0,0,0,.13.12ZM75.38,75a.12.12,0,0,0,0-.17l-4-5.07a.12.12,0,0,0-.17,0,.12.12,0,0,0,0,.18L75.21,75a.14.14,0,0,0,.1,0,.12.12,0,0,0,.08,0Zm6.17-1.37a.13.13,0,0,0-.12-.13L76,73.19a.12.12,0,0,0-.11.13.13.13,0,0,0,.1.12l5.44.27h0a.13.13,0,0,0,.13-.12Zm-2.56,4a.12.12,0,0,0-.11-.14h0l-4.16-.41a.12.12,0,0,0-.13.11h0a.12.12,0,0,0,.11.14l4.15.41h0a.13.13,0,0,0,.13-.11Zm-5.22,2.14a.12.12,0,0,0,0-.17l-2.06-3.1a.13.13,0,0,0-.17,0,.12.12,0,0,0,0,.17l2,3.11a.11.11,0,0,0,.11.06.11.11,0,0,0,.07,0Zm4.72,1a.13.13,0,0,0-.12-.12l-4.89-.05h0a.13.13,0,0,0-.13.13.12.12,0,0,0,.12.12h0l4.89.05h0a.14.14,0,0,0,.13-.12h0Zm-6.56,7.31a4.83,4.83,0,0,1,3.35-2.86.12.12,0,0,0,.09-.15.11.11,0,0,0-.14-.09,5.06,5.06,0,0,0-3.53,3,.12.12,0,0,0,.07.16h0a.12.12,0,0,0,.13-.08Zm.56,1.82a.12.12,0,0,0,.11-.13c-.31-4.67,1.5-12.32,4.39-18.59,1.85-4,9.11-11.9,9.19-12a.11.11,0,0,0,0-.17.14.14,0,0,0-.18,0h0c-.07.07-7.36,8-9.22,12C73.83,77.52,72,85,72.36,89.81a.13.13,0,0,0,.13.12Zm5.92-21.29a.12.12,0,0,0,.11-.13l-.47-8a.12.12,0,0,0-.13-.12h0a.12.12,0,0,0-.12.13l.48,8a.13.13,0,0,0,.13.11Zm-1.48,2.63A.13.13,0,0,0,77,71.1l-3-6.88a.12.12,0,0,0-.16-.06.12.12,0,0,0-.06.16l3,6.88a.12.12,0,0,0,.11.08h.05Zm.53-1,7.28-1a.13.13,0,0,0,.12-.13.12.12,0,0,0-.12-.12h0l-7.29,1a.12.12,0,0,0-.11.13.12.12,0,0,0,.13.12ZM75.38,75a.12.12,0,0,0,0-.17l-4-5.07a.12.12,0,0,0-.17,0,.12.12,0,0,0,0,.18L75.21,75a.14.14,0,0,0,.1,0,.12.12,0,0,0,.08,0Zm6.17-1.37a.13.13,0,0,0-.12-.13L76,73.19a.12.12,0,0,0-.11.13.13.13,0,0,0,.1.12l5.44.27h0a.13.13,0,0,0,.13-.12Zm-2.56,4a.12.12,0,0,0-.11-.14h0l-4.16-.41a.12.12,0,0,0-.13.11h0a.12.12,0,0,0,.11.14l4.15.41h0a.13.13,0,0,0,.13-.11Zm-5.22,2.14a.12.12,0,0,0,0-.17l-2.06-3.1a.13.13,0,0,0-.17,0,.12.12,0,0,0,0,.17l2,3.11a.11.11,0,0,0,.11.06.11.11,0,0,0,.07,0Zm4.72,1a.13.13,0,0,0-.12-.12l-4.89-.05h0a.13.13,0,0,0-.13.13.12.12,0,0,0,.12.12h0l4.89.05h0a.14.14,0,0,0,.13-.12h0Zm-6.56,7.31a4.83,4.83,0,0,1,3.35-2.86.12.12,0,0,0,.09-.15.11.11,0,0,0-.14-.09,5.06,5.06,0,0,0-3.53,3,.12.12,0,0,0,.07.16h0a.12.12,0,0,0,.13-.08Z" transform="translate(-3.11 -6.39)"/><path class="cls-8" d="M78.41,68.51l-.48-8m-1,10.64-3-6.88m10.89,4.88-7.29,1m-2.14,4.66L71.37,69.8M76,73.31l5.44.28M74.72,77.2l4.15.41m-5.16,2-2.06-3.1m1.83,4.2,4.88,0m-5.87,9.13a.12.12,0,0,0,.11-.13c-.31-4.67,1.5-12.32,4.39-18.59,1.85-4,9.11-11.9,9.19-12a.11.11,0,0,0,0-.17.14.14,0,0,0-.18,0h0c-.07.07-7.36,8-9.22,12C73.83,77.52,72,85,72.36,89.81A.13.13,0,0,0,72.49,89.93Zm5.92-21.29a.12.12,0,0,0,.11-.13l-.47-8a.12.12,0,0,0-.13-.12h0a.12.12,0,0,0-.12.13l.48,8a.13.13,0,0,0,.13.11Zm-1.48,2.63A.13.13,0,0,0,77,71.1l-3-6.88a.12.12,0,0,0-.16-.06.12.12,0,0,0-.06.16h0l3,6.88a.12.12,0,0,0,.11.08h.05Zm.53-1,7.28-1a.13.13,0,0,0,.12-.13.12.12,0,0,0-.12-.12h0l-7.29,1a.12.12,0,0,0-.11.13.12.12,0,0,0,.13.12ZM75.38,75a.12.12,0,0,0,0-.17l-4-5.07a.12.12,0,0,0-.17,0,.12.12,0,0,0,0,.18L75.21,75a.14.14,0,0,0,.1,0,.12.12,0,0,0,.08,0Zm6.17-1.37a.13.13,0,0,0-.12-.13L76,73.19a.12.12,0,0,0-.11.13.13.13,0,0,0,.1.12l5.44.27h0a.13.13,0,0,0,.13-.12Zm-2.56,4a.12.12,0,0,0-.11-.14h0l-4.16-.41a.12.12,0,0,0-.13.11h0a.12.12,0,0,0,.11.14l4.15.41h0a.13.13,0,0,0,.13-.11Zm-5.22,2.14a.12.12,0,0,0,0-.17l-2.06-3.1a.13.13,0,0,0-.17,0,.12.12,0,0,0,0,.17l2,3.11a.11.11,0,0,0,.11.06.11.11,0,0,0,.07,0Zm4.72,1a.13.13,0,0,0-.12-.12l-4.89-.05h0a.13.13,0,0,0-.13.13.12.12,0,0,0,.12.12h0l4.89.05h0a.14.14,0,0,0,.13-.12h0Zm-6.56,7.31a4.83,4.83,0,0,1,3.35-2.86.12.12,0,0,0,.09-.15.11.11,0,0,0-.14-.09,5.06,5.06,0,0,0-3.53,3,.12.12,0,0,0,.07.16h0a.12.12,0,0,0,.13-.08Zm.56,1.82a.12.12,0,0,0,.11-.13c-.31-4.67,1.5-12.32,4.39-18.59,1.85-4,9.11-11.9,9.19-12a.11.11,0,0,0,0-.17.14.14,0,0,0-.18,0h0c-.07.07-7.36,8-9.22,12C73.83,77.52,72,85,72.36,89.81a.13.13,0,0,0,.13.12Zm5.92-21.29a.12.12,0,0,0,.11-.13l-.47-8a.12.12,0,0,0-.13-.12h0a.12.12,0,0,0-.12.13l.48,8a.13.13,0,0,0,.13.11Zm-1.48,2.63A.13.13,0,0,0,77,71.1l-3-6.88a.12.12,0,0,0-.16-.06.12.12,0,0,0-.06.16l3,6.88a.12.12,0,0,0,.11.08h.05Zm.53-1,7.28-1a.13.13,0,0,0,.12-.13.12.12,0,0,0-.12-.12h0l-7.29,1a.12.12,0,0,0-.11.13.12.12,0,0,0,.13.12ZM75.38,75a.12.12,0,0,0,0-.17l-4-5.07a.12.12,0,0,0-.17,0,.12.12,0,0,0,0,.18L75.21,75a.14.14,0,0,0,.1,0,.12.12,0,0,0,.08,0Zm6.17-1.37a.13.13,0,0,0-.12-.13L76,73.19a.12.12,0,0,0-.11.13.13.13,0,0,0,.1.12l5.44.27h0a.13.13,0,0,0,.13-.12Zm-2.56,4a.12.12,0,0,0-.11-.14h0l-4.16-.41a.12.12,0,0,0-.13.11h0a.12.12,0,0,0,.11.14l4.15.41h0a.13.13,0,0,0,.13-.11Zm-5.22,2.14a.12.12,0,0,0,0-.17l-2.06-3.1a.13.13,0,0,0-.17,0,.12.12,0,0,0,0,.17l2,3.11a.11.11,0,0,0,.11.06.11.11,0,0,0,.07,0Zm4.72,1a.13.13,0,0,0-.12-.12l-4.89-.05h0a.13.13,0,0,0-.13.13.12.12,0,0,0,.12.12h0l4.89.05h0a.14.14,0,0,0,.13-.12h0Zm-6.56,7.31a4.83,4.83,0,0,1,3.35-2.86.12.12,0,0,0,.09-.15.11.11,0,0,0-.14-.09,5.06,5.06,0,0,0-3.53,3,.12.12,0,0,0,.07.16h0a.12.12,0,0,0,.13-.08Z" transform="translate(-3.11 -6.39)"/><polygon class="cls-2" points="72.61 80.05 67 80.05 67 81.21 67.49 81.21 68.5 87.53 71.11 87.53 72.12 81.21 72.61 81.21 72.61 80.05"/><polygon class="cls-7" points="72.61 80.05 67 80.05 67 81.21 67.49 81.21 68.5 87.53 71.11 87.53 72.12 81.21 72.61 81.21 72.61 80.05"/></g><g id="freepik--Character--inject-1--inject-4"><polygon class="cls-4" points="22.14 44.96 15.62 42.83 15.04 41.3 13.72 41.26 11.32 40.8 11.61 41.3 14.63 43.5 15.38 43.87 22.2 47.43 22.14 44.96"/><path class="cls-6" d="M25.41,54l-7-3.64L17.7,50l-3.07-2.24-.4-.68,2.62.5,1.38,0,.58,1.55,6.54,2.13ZM14.79,47.63l3,2.18.73.36,6.67,3.49,0-2.23-6.5-2.12-.57-1.52-1.26,0-2.21-.41Z" transform="translate(-3.11 -6.39)"/><polygon class="cls-4" points="15.04 41.3 14.42 40.93 13.18 41.38 13.39 41.63 15.04 41.3"/><path class="cls-6" d="M16.5,48.12a.11.11,0,0,1-.08,0l-.2-.25a.1.1,0,0,1,0-.09.13.13,0,0,1,.06-.07l1.24-.45a.1.1,0,0,1,.09,0l.62.37a.1.1,0,0,1,0,.1.08.08,0,0,1-.07.08l-1.66.33Zm0-.3.08.1,1.34-.27-.36-.22Z" transform="translate(-3.11 -6.39)"/><polygon class="cls-4" points="22.14 44.96 15.62 42.83 15.04 41.3 13.72 41.26 11.32 40.8 11.61 41.3 14.63 43.5 15.38 43.87 22.2 47.43 22.14 44.96"/><g class="cls-9"><g class="cls-10"><polygon class="cls-2" points="22.14 44.96 15.62 42.83 15.04 41.3 13.72 41.26 11.32 40.8 11.61 41.3 14.63 43.5 15.38 43.87 22.2 47.43 22.14 44.96"/><path class="cls-6" d="M25.41,54l-7-3.64L17.7,50l-3.07-2.24-.4-.68,2.62.5,1.38,0,.58,1.55,6.54,2.13ZM14.79,47.63l3,2.18.73.36,6.67,3.49,0-2.23-6.5-2.12-.57-1.52-1.26,0-2.21-.41Z" transform="translate(-3.11 -6.39)"/></g></g><path class="cls-6" d="M25.41,54l-7-3.64L17.7,50l-3.07-2.24-.4-.68,2.62.5,1.38,0,.58,1.55,6.54,2.13ZM14.79,47.63l3,2.18.73.36,6.67,3.49,0-2.23-6.5-2.12-.57-1.52-1.26,0-2.21-.41Z" transform="translate(-3.11 -6.39)"/><polygon class="cls-4" points="15.04 41.3 14.42 40.93 13.18 41.38 13.39 41.63 15.04 41.3"/><g class="cls-11"><g class="cls-10"><polygon class="cls-2" points="15.04 41.3 14.42 40.93 13.18 41.38 13.39 41.63 15.04 41.3"/><path class="cls-6" d="M16.5,48.12a.11.11,0,0,1-.08,0l-.2-.25a.1.1,0,0,1,0-.09.13.13,0,0,1,.06-.07l1.24-.45a.1.1,0,0,1,.09,0l.62.37a.1.1,0,0,1,0,.1.08.08,0,0,1-.07.08l-1.66.33Zm0-.3.08.1,1.34-.27-.36-.22Z" transform="translate(-3.11 -6.39)"/></g></g><path class="cls-6" d="M16.5,48.12a.11.11,0,0,1-.08,0l-.2-.25a.1.1,0,0,1,0-.09.13.13,0,0,1,.06-.07l1.24-.45a.1.1,0,0,1,.09,0l.62.37a.1.1,0,0,1,0,.1.08.08,0,0,1-.07.08l-1.66.33Zm0-.3.08.1,1.34-.27-.36-.22Z" transform="translate(-3.11 -6.39)"/><path class="cls-4" d="M26.64,37.54A3.52,3.52,0,0,0,26.79,39a28.21,28.21,0,0,0,1.65,2.51L25.83,43.6s-1.08-2.17-1.29-2.53a3.61,3.61,0,0,1,.22-3C25.43,37,26.4,36.74,26.64,37.54Z" transform="translate(-3.11 -6.39)"/><g class="cls-12"><polygon class="cls-13" points="22.19 34.01 23.32 36.35 22.72 37.21 21.58 35.18 22.19 34.01"/></g><path class="cls-6" d="M25.8,43.76l-.06-.11s-1.08-2.18-1.28-2.53a3.64,3.64,0,0,1,.22-3c.44-.72,1-1.14,1.51-1.08a.67.67,0,0,1,.54.52v0A3.38,3.38,0,0,0,26.88,39a29.21,29.21,0,0,0,1.64,2.49l.05.07Zm.29-6.58c-.32,0-.82.3-1.24,1A3.49,3.49,0,0,0,24.63,41c.18.31,1,2,1.24,2.43l2.43-2a28.07,28.07,0,0,1-1.6-2.45,3.4,3.4,0,0,1-.16-1.5.48.48,0,0,0-.38-.36Z" transform="translate(-3.11 -6.39)"/><path class="cls-4" d="M27.45,35.91c-.16-1-1.3-3-3.1-2.93a4.42,4.42,0,0,0-2.22.58,6.38,6.38,0,0,0-1.15.86c-.88,1-1.18,1.34-1,2.15a2.39,2.39,0,0,0,.14,1,8.24,8.24,0,0,0,.69,1.53c-.07.33-.26,1.21-.27,1.42s.6.06.9,0a4.88,4.88,0,0,0,1.93,2.25c.56.17,1.45-.75,1.92-1.47s.12-1.52.12-1.84,1.06-1,1.45-1.25A2.49,2.49,0,0,0,27.45,35.91Z" transform="translate(-3.11 -6.39)"/><g class="cls-14"><path class="cls-13" d="M20,36.57a2.59,2.59,0,0,0,.15,1,8.24,8.24,0,0,0,.69,1.53c-.07.33-.26,1.21-.27,1.42s.6.06.9,0a4.83,4.83,0,0,0,1.93,2.25c.56.17,1.45-.75,1.92-1.47a1.41,1.41,0,0,0,.22-.59c0-.09,0-.15,0-.15s-.27,1-.79.88-1.34-1.18-1.78-1.55-.27-.84-.36-1.38-1.42-1-1.51-1.33a6.52,6.52,0,0,1,.22-1.6s.51-.67.4-.4a1.88,1.88,0,0,0,.13,1.47,1,1,0,0,0,.94.57l.48-2.39-1-.85-1.19.5C20.1,35.47,19.8,35.76,20,36.57Z" transform="translate(-3.11 -6.39)"/></g><path class="cls-6" d="M23.5,42.82a.51.51,0,0,1-.17,0,4.82,4.82,0,0,1-1.95-2.22c-.51.12-.77.13-.88,0a.18.18,0,0,1-.07-.15c0-.18.15-.85.27-1.39A8.18,8.18,0,0,1,20,37.55a2.47,2.47,0,0,1-.15-1c-.17-.79.11-1.12.85-2l.19-.22a6.64,6.64,0,0,1,1.17-.88,4.43,4.43,0,0,1,2.27-.58c1.79-.08,3,1.88,3.2,3h0a2.61,2.61,0,0,1-.65,2.34c-.56.31-1.4.94-1.4,1.16a2.51,2.51,0,0,0,0,.3,2,2,0,0,1-.18,1.6C24.94,41.94,24.13,42.82,23.5,42.82Zm-2-2.49,0,.08a4.72,4.72,0,0,0,1.87,2.19c.45.15,1.27-.61,1.81-1.42a1.93,1.93,0,0,0,.15-1.46,1.56,1.56,0,0,1-.05-.33c0-.46,1.49-1.33,1.5-1.34a2.4,2.4,0,0,0,.55-2.12h0c-.14-.87-1.2-2.93-3-2.85a4.39,4.39,0,0,0-2.18.56,6.68,6.68,0,0,0-1.13.85l-.17.21c-.74.88-1,1.15-.82,1.85h0a2.35,2.35,0,0,0,.15.91A7.25,7.25,0,0,0,20.88,39l0,0v0c-.16.76-.26,1.27-.27,1.4h.08a3,3,0,0,0,.7-.13Z" transform="translate(-3.11 -6.39)"/><path class="cls-6" d="M21.37,39.13a.76.76,0,0,1-.16,0l0,0L21,38.48a.09.09,0,0,1,.06-.12.09.09,0,0,1,.13.06l.18.51a1,1,0,0,0,.8-.41.1.1,0,0,1,.14.14A1.23,1.23,0,0,1,21.37,39.13Z" transform="translate(-3.11 -6.39)"/><path class="cls-6" d="M22.51,41.19a.11.11,0,0,1-.1-.09.09.09,0,0,1,.09-.1.8.8,0,0,0,.58-.64.09.09,0,0,1,.12-.07.1.1,0,0,1,.07.12c-.21.72-.73.78-.75.78Z" transform="translate(-3.11 -6.39)"/><path class="cls-6" d="M20.72,38.07h0a.1.1,0,0,1-.06-.13s.18-.49,1.09-.49a.1.1,0,0,1,0,.2c-.76,0-.9.34-.9.36A.1.1,0,0,1,20.72,38.07Z" transform="translate(-3.11 -6.39)"/><path class="cls-6" d="M25.07,32.2a14.57,14.57,0,0,0-1.86-.15,3.75,3.75,0,0,0-3.66.07c-1.79,1.15-.93,3.16-.93,3.66s-.58.5-.22,1.15,1.57.29,1.57.29A1.72,1.72,0,0,1,20.62,36c.65-.5,1.16-.61,1.37-.47A3.73,3.73,0,0,0,22.07,37a4.09,4.09,0,0,0,.93.36c.21,0-.14.3.57.57a.91.91,0,0,0,.79-.09c.11-.44.34-1.09.77-.94.62.22,1.2,1.77.35,2.29,1,.19,2.26-1.62,2.33-3.27A4.32,4.32,0,0,0,25.07,32.2Z" transform="translate(-3.11 -6.39)"/><path class="cls-4" d="M25.81,36.26a4,4,0,0,1-2.65-1.11c-.61-.58-1.09-.33-1.11-.32s-.05,0-.07,0a.07.07,0,0,1,0-.07,1.09,1.09,0,0,1,1.23.33,3.64,3.64,0,0,0,3.52,1,.05.05,0,0,1,.06,0s0,0,0,.06A3.87,3.87,0,0,1,25.81,36.26Z" transform="translate(-3.11 -6.39)"/><path class="cls-4" d="M26.07,34.64A6.15,6.15,0,0,1,24,34.11a4.09,4.09,0,0,0-1.1-.32,1.25,1.25,0,0,0-.93.54,0,0,0,0,1-.06,0,0,0,0,0,1,0-.06,1.32,1.32,0,0,1,1-.59,3.93,3.93,0,0,1,1.14.33,6.22,6.22,0,0,0,2,.52,0,0,0,0,1,.05.05A.05.05,0,0,1,26.07,34.64Z" transform="translate(-3.11 -6.39)"/><path class="cls-4" d="M20,36.62l0,0a1.18,1.18,0,0,1,.24-1.4.78.78,0,0,1,.62-.28,1.22,1.22,0,0,1,.79.44,0,0,0,0,1,0,.07,0,0,0,0,1-.07,0,1.18,1.18,0,0,0-.72-.41.73.73,0,0,0-.54.26A1,1,0,0,0,20,36.54a.06.06,0,0,1,0,.07Z" transform="translate(-3.11 -6.39)"/><path class="cls-4" d="M18.8,36l0,0a0,0,0,0,1,0-.07,2,2,0,0,0,.67-1.34,1.5,1.5,0,0,1,1-1.18,1.12,1.12,0,0,1,1.19.22,0,0,0,1,1-.07.07,1,1,0,0,0-1.09-.2,1.4,1.4,0,0,0-.89,1.1,2.2,2.2,0,0,1-.7,1.41Z" transform="translate(-3.11 -6.39)"/><path class="cls-4" d="M22.27,33.1l0,0a1.45,1.45,0,0,0-1-.73,1.61,1.61,0,0,0-1.12.41,0,0,0,0,1-.07-.07,1.66,1.66,0,0,1,1.2-.44,1.55,1.55,0,0,1,1.1.77,0,0,0,0,1,0,.07Z" transform="translate(-3.11 -6.39)"/><path class="cls-4" d="M29.92,90.36a4,4,0,0,1,.67,1.9l-.08.75a29.77,29.77,0,0,1-3.32.75c-.58,0-3.65-.29-3.65-.29l-.14-.53a.19.19,0,0,1,.1-.2l2.74-1.27.86-1Z" transform="translate(-3.11 -6.39)"/><path class="cls-6" d="M27.19,93.86c-.58,0-3.54-.28-3.66-.29h-.07L23.31,93a.28.28,0,0,1,.15-.32l2.72-1.27.87-1L30,90.25l0,0a4.11,4.11,0,0,1,.68,2l-.09.82h-.07A27.06,27.06,0,0,1,27.19,93.86Zm-3.57-.48c.46,0,3.05.28,3.57.28a28.1,28.1,0,0,0,3.22-.73l.08-.68a3.64,3.64,0,0,0-.62-1.79l-2.72.16-.87.94-2.74,1.27a.08.08,0,0,0,0,.09Z" transform="translate(-3.11 -6.39)"/><path class="cls-2" d="M27.6,93.17a9.49,9.49,0,0,0,3-.68l-.05.52a30,30,0,0,1-3.33.75c-.58,0-3.65-.29-3.65-.29l-.1-.38C23.93,93.09,26.62,93.1,27.6,93.17Z" transform="translate(-3.11 -6.39)"/><path class="cls-6" d="M27.19,93.86c-.58,0-3.54-.28-3.66-.29h-.07L23.31,93h.22c2.08,0,3.46,0,4.08.09h0a9.81,9.81,0,0,0,2.93-.68l.15-.06-.08.75h-.07A27.27,27.27,0,0,1,27.19,93.86Zm-3.57-.48c.46,0,3.05.28,3.57.28a28.28,28.28,0,0,0,3.23-.73l0-.29a8.9,8.9,0,0,1-2.86.63h0c-.62,0-2-.07-4-.08Z" transform="translate(-3.11 -6.39)"/><path class="cls-4" d="M26.24,91.47l-4,1.73s-.34.85,0,1,7.76,0,7.76,0a2.39,2.39,0,0,0-.3-2.25C28.91,91.07,26.24,91.47,26.24,91.47Z" transform="translate(-3.11 -6.39)"/><path class="cls-6" d="M24.53,94.4a14.07,14.07,0,0,1-2.32-.09c-.41-.2-.08-1-.05-1.15l0,0,4.05-1.76c.11,0,2.73-.4,3.57.53a2.45,2.45,0,0,1,.31,2.36l0,.06H30C29.25,94.34,26.55,94.4,24.53,94.4Zm-2.2-1.13c-.09.27-.22.77,0,.87s4.7,0,7.65,0a2.28,2.28,0,0,0-.3-2.09c-.74-.83-3.18-.51-3.38-.48Z" transform="translate(-3.11 -6.39)"/><path class="cls-2" d="M30,94.22s-7.42.17-7.76,0c-.17-.08-.17-.32-.14-.55h8A2.45,2.45,0,0,1,30,94.22Z" transform="translate(-3.11 -6.39)"/><path class="cls-6" d="M24.53,94.4a14.07,14.07,0,0,1-2.32-.09C22,94.22,22,94,22,93.66v-.09h8.23l0,.12a3.9,3.9,0,0,1-.13.57l0,.06H30C29.25,94.34,26.55,94.4,24.53,94.4Zm-2.32-.63c0,.14,0,.31.09.37.28.11,4.7,0,7.65,0l.09-.36Z" transform="translate(-3.11 -6.39)"/><path class="cls-2" d="M24.36,61.33s-1,4.62-1.44,7.5a82.84,82.84,0,0,0-.54,9.34c.08.66,4.23,11.77,4.23,11.77l.41,1,2.9-.58S28.6,86.12,28.1,83.8s-1.58-6.14-1.58-6.8,2.57-13.33,2.75-14.16a9,9,0,0,1,1-2.11l-5.55-.11Z" transform="translate(-3.11 -6.39)"/><path class="cls-6" d="M27,91,26.52,90c-.17-.46-4.16-11.14-4.24-11.8a83.6,83.6,0,0,1,.54-9.36c.39-2.86,1.43-7.47,1.44-7.51v0l.41-.77,5.8.12-.1.15a8.71,8.71,0,0,0-1,2.08c-.16.74-2.75,13.5-2.75,14.14a30.56,30.56,0,0,0,.76,3.38c.3,1.19.61,2.42.82,3.4.49,2.29,1.81,6.5,1.82,6.54l0,.11ZM24.45,61.37c-.06.27-1.05,4.7-1.43,7.48a80.34,80.34,0,0,0-.54,9.3c.06.52,2.79,7.92,4.22,11.76l.38.91,2.72-.54c-.21-.67-1.35-4.36-1.8-6.46-.21-1-.52-2.21-.82-3.39A28.79,28.79,0,0,1,26.42,77c0-.68,2.59-13.43,2.76-14.18a8,8,0,0,1,.94-2l-5.32-.1Z" transform="translate(-3.11 -6.39)"/><path class="cls-2" d="M24.36,61.33A39.11,39.11,0,0,0,24,68.48c.25,2.93.79,9.16.79,10.09s1.5,6.48,1.58,8.22a20.37,20.37,0,0,1-.05,3.76l-.09.91s1.75.25,2.13.36a4.41,4.41,0,0,0,1.35.15,27.6,27.6,0,0,0,.64-5.18c0-2.39-.53-7.29-.79-9.28a51.85,51.85,0,0,1,1-11.09c.47-1.43,1.5-4.46.8-6S24.36,61.33,24.36,61.33Z" transform="translate(-3.11 -6.39)"/><path class="cls-6" d="M29.54,92.07a4.87,4.87,0,0,1-1.2-.15c-.38-.11-2.11-.35-2.12-.36h-.1l.1-1a20.63,20.63,0,0,0,.05-3.75,39.37,39.37,0,0,0-.93-4.88,28.22,28.22,0,0,1-.65-3.34c0-.87-.49-6.54-.75-9.58l0-.51a38.81,38.81,0,0,1,.36-7.16v-.06l.05,0c.26-.1,6.45-2.48,7.17-.87s-.25,4.43-.76,6l0,.1a52.29,52.29,0,0,0-1,11c.27,2.08.79,7,.79,9.29a27.59,27.59,0,0,1-.64,5.2l0,.08h-.25Zm-3.2-.69c.37.05,1.71.25,2.05.35a4.72,4.72,0,0,0,1.24.14,27.33,27.33,0,0,0,.62-5.08c0-2.33-.51-7.18-.79-9.27a53,53,0,0,1,1-11.13l0-.11c.46-1.41,1.43-4.35.77-5.83-.53-1.18-5.08.27-6.86.95a38.93,38.93,0,0,0-.35,7.07l0,.5c.26,3,.75,8.72.75,9.6a27.89,27.89,0,0,0,.65,3.29,41.72,41.72,0,0,1,.93,4.92,21.12,21.12,0,0,1,0,3.79Z" transform="translate(-3.11 -6.39)"/><path class="cls-6" d="M32.17,59.64l-.06,1.88s-1.13.22-2.65.49A30.72,30.72,0,0,1,24,61.85a.37.37,0,0,1-.33-.4l.1-1.7Z" transform="translate(-3.11 -6.39)"/><path class="cls-4" d="M27.76,40.85A22.93,22.93,0,0,0,25.31,44a15.32,15.32,0,0,0-1.19,4.48c-.25,1.44.43,4.84.24,6.4l-.61,4.9s-.13.34.31.7,2.57.5,4.5.6c.71,0,2.81-.42,3.16-.44s.43-.56.44-1c.09-2,.44-7.17.67-9.44C33.31,45.58,30.7,41.11,27.76,40.85Z" transform="translate(-3.11 -6.39)"/><path class="cls-6" d="M28.65,61.15h-.09c-2.06-.1-4.11-.23-4.57-.61a.77.77,0,0,1-.34-.8l.61-4.9a17.35,17.35,0,0,0-.13-3.09A15.5,15.5,0,0,1,24,48.43l.07-.41a13.88,13.88,0,0,1,1.13-4.1,23.48,23.48,0,0,1,2.47-3.14l0,0h.05a4.65,4.65,0,0,1,3.05,1.84,10.61,10.61,0,0,1,2.11,7.62c-.24,2.3-.59,7.56-.67,9.43v0c0,.42,0,1-.54,1l-.79.13A16.48,16.48,0,0,1,28.65,61.15ZM27.8,41A21.51,21.51,0,0,0,25.4,44a13.54,13.54,0,0,0-1.11,4l-.07.42a15,15,0,0,0,.11,3.25,17.83,17.83,0,0,1,.13,3.14l-.62,4.93s-.09.28.28.58,3.05.51,4.45.58a16.24,16.24,0,0,0,2.32-.31,8,8,0,0,1,.82-.13c.29,0,.33-.38.35-.85v0c.08-1.87.44-7.13.67-9.44a10.43,10.43,0,0,0-2.07-7.48A4.5,4.5,0,0,0,27.8,41Z" transform="translate(-3.11 -6.39)"/><path class="cls-2" d="M32.61,52.83c.08-1,.16-2,.23-2.63,0-.19,0-.39,0-.59l-4.73.79L24.08,49a23.32,23.32,0,0,0,.14,2.51l4,1.12Z" transform="translate(-3.11 -6.39)"/><path class="cls-2" d="M27.59,41c-.27.3-.81.91-1.32,1.55l3,3.06,1-.4Z" transform="translate(-3.11 -6.39)"/><path class="cls-6" d="M27.76,40.85A22.93,22.93,0,0,0,25.31,44a6,6,0,0,0-.48,1.14L28.41,41A2.88,2.88,0,0,0,27.76,40.85Z" transform="translate(-3.11 -6.39)"/><path class="cls-2" d="M24.26,47.67,28.15,49l4.72-.54A11.17,11.17,0,0,0,32.1,45L28.29,46.5,24.89,45A18.05,18.05,0,0,0,24.26,47.67Z" transform="translate(-3.11 -6.39)"/><path class="cls-2" d="M31,57.68a12,12,0,0,1-5.88-.48l-.95-.32-.3,2.37,1.08.3a16.27,16.27,0,0,0,6.32.49l.88-.1a.82.82,0,0,0,.07-.31c0-.53.07-1.3.12-2.18Z" transform="translate(-3.11 -6.39)"/><path class="cls-2" d="M31.48,54.45A12,12,0,0,1,25.59,54l-1.2-.41a7.94,7.94,0,0,1,0,1.29L24.23,56l1.2.33a16.25,16.25,0,0,0,6.32.49l.6-.07c0-.79.1-1.63.16-2.47Z" transform="translate(-3.11 -6.39)"/><rect class="cls-6" x="14.77" y="45.05" width="0.26" height="4.91" transform="translate(-34.57 22.96) rotate(-51.2)"/><path class="cls-4" d="M29.61,43A4,4,0,0,1,31,46.2a22.59,22.59,0,0,1-.32,3.53c-.22,1.63-1.64,6.91-2.74,7.55s-2.81-.57-2.81-.57l-8.26-5.49-2-1.61-1-1.87.31-.6L16.67,49,15.36,47.8l.25-.33.48.33,1.38.52.31,2,.43.3,7.9,2.88s-.1-4.25,0-5.06a10.63,10.63,0,0,1,1-4.35" transform="translate(-3.11 -6.39)"/><g class="cls-15"><path class="cls-13" d="M26.06,50.27c0,1.47,0,3.21,0,3.21l-7.89-2.87-.43-.3-.3-2-1.39-.51-.47-.34-.26.33L16.67,49l-2.44-1.87-.29.59,1,1.87,2,1.62.51.34,10.92,3.51Z" transform="translate(-3.11 -6.39)"/></g><path class="cls-6" d="M27.23,57.57a4.39,4.39,0,0,1-2.12-.78L16.85,51.3l-2-1.65-1-1.91L14.2,47l1,.8.35-.45.55.37,1.42.54.31,2,.38.27L26,53.34c0-.76-.09-4.2,0-4.93l0-.23A10.14,10.14,0,0,1,27,44l.18.1a10.16,10.16,0,0,0-1,4.08l0,.22c-.07.8,0,5,0,5.06v.15l-8.06-3-.46-.32-.3-2L16,47.89l-.4-.28-.14.18,1.25,1.15-.13.15L14.26,47.3l-.23.44,1,1.8,2,1.6,8.26,5.48s1.67,1.17,2.7.57,2.47-5.87,2.7-7.47a22.16,22.16,0,0,0,.31-3.52,3.94,3.94,0,0,0-1.39-3.14l.11-.16a4,4,0,0,1,1.48,3.3,22.71,22.71,0,0,1-.32,3.55c-.23,1.67-1.65,7-2.79,7.61A1.52,1.52,0,0,1,27.23,57.57Z" transform="translate(-3.11 -6.39)"/><path class="cls-4" d="M26.11,53.48l3,2.18.78-1.38s.54-.43.62-.75,0-.84.06-1.16.48-.62.52-1.4a14,14,0,0,0,0-1.42,19.16,19.16,0,0,0,.58-3.86c-.07-1.17-1.19-3.23-2.1-3.28a3.09,3.09,0,0,0-3,1.47c-.91,1.38-.73,5.4-.87,5.65a5,5,0,0,0,.05,1.5.67.67,0,0,0-.27.5,3.92,3.92,0,0,0,.33,1.11Z" transform="translate(-3.11 -6.39)"/><path class="cls-6" d="M29.16,55.81,26,53.55l-.28-.88a3.83,3.83,0,0,1-.33-1.15.73.73,0,0,1,.27-.53,4,4,0,0,1,0-1.5,6,6,0,0,0,.06-.93c.06-1.39.14-3.72.81-4.73a3.22,3.22,0,0,1,3.08-1.52c1,0,2.12,2.2,2.19,3.38a19.11,19.11,0,0,1-.58,3.87,11.92,11.92,0,0,1,0,1.41,2.08,2.08,0,0,1-.37,1.11,1.23,1.23,0,0,0-.15.31,2,2,0,0,0,0,.56,2.87,2.87,0,0,1,0,.6,2,2,0,0,1-.64.79Zm-3-2.39,2.9,2.1.75-1.32a1.88,1.88,0,0,0,.58-.69,2.46,2.46,0,0,0,0-.56,2.43,2.43,0,0,1,0-.61,1.34,1.34,0,0,1,.18-.36A2,2,0,0,0,31,51a13.94,13.94,0,0,0,0-1.41h0v0a20.29,20.29,0,0,0,.57-3.82c-.07-1.18-1.2-3.15-2-3.19a3,3,0,0,0-2.9,1.43c-.64,1-.73,3.35-.78,4.63a4,4,0,0,1-.08,1A4.27,4.27,0,0,0,25.89,51v.06l0,0a.6.6,0,0,0-.23.43,3.61,3.61,0,0,0,.32,1.06Z" transform="translate(-3.11 -6.39)"/><path class="cls-2" d="M25.82,48.5a5.88,5.88,0,0,1-.08,1A4.46,4.46,0,0,0,25.79,51a11.81,11.81,0,0,0,5.25.39,2,2,0,0,0,.07-.42,14,14,0,0,0,0-1.42l.13-.61A19,19,0,0,1,25.82,48.5Z" transform="translate(-3.11 -6.39)"/><path class="cls-2" d="M26.48,44.1A7.29,7.29,0,0,0,26,46.39a12,12,0,0,0,5.65.69,8.13,8.13,0,0,0,.1-1.39,3.9,3.9,0,0,0-.26-1.07A19.73,19.73,0,0,1,26.48,44.1Z" transform="translate(-3.11 -6.39)"/><path class="cls-6" d="M25.85,52.67l.25.81,3,2.18.78-1.38s.54-.43.62-.75a.51.51,0,0,0,0-.17A18.67,18.67,0,0,1,25.85,52.67Z" transform="translate(-3.11 -6.39)"/><path class="cls-6" d="M28.13,91.8h-.2s.08-1.75.4-4.23a21.9,21.9,0,0,0-.59-6.62,6.37,6.37,0,0,1,0-1.28,4.05,4.05,0,0,0,0-1.09l0-.09a10.48,10.48,0,0,1-.37-4.69c.35-2.15.65-7.71.68-8.29a4.12,4.12,0,0,1-1.23-1.8c-.28-1-.07-1.37-.05-1.41l.16.11s-.17.31.08,1.25a4.09,4.09,0,0,0,1.2,1.73l0,0v0c0,.06-.31,6.09-.69,8.36a10.37,10.37,0,0,0,.37,4.6l0,.09a4.62,4.62,0,0,1,0,1.16,6.61,6.61,0,0,0,0,1.22,22.36,22.36,0,0,1,.6,6.7C28.2,90.06,28.13,91.78,28.13,91.8Z" transform="translate(-3.11 -6.39)"/><rect class="cls-6" x="27.26" y="63.36" width="2.06" height="0.2" transform="translate(-42.28 73.67) rotate(-79.8)"/></g><path class="cls-16" d="M30.7,9s0,0,0,0h.05a.85.85,0,0,0,.84-.86c0-.6-.49-.87-1-.87H28a.06.06,0,0,0-.06.06V10A.06.06,0,0,0,28,10h.83a.06.06,0,0,0,.06-.06V9.11a.07.07,0,0,1,.07-.06h.54a.25.25,0,0,1,.19.09l.77.86,0,0h1.09a.06.06,0,0,0,0-.1Zm-.35-.58H28.92s-.07,0-.07-.06V8a.07.07,0,0,1,.07-.07h1.41c.2,0,.33.1.33.26S30.54,8.42,30.35,8.42Z" transform="translate(-3.11 -6.39)"/><rect class="cls-16" x="37.17" y="0.84" width="0.96" height="1.89" rx="0.06"/><rect class="cls-16" x="37.17" y="3.11" width="0.96" height="0.52" rx="0.06"/><path class="cls-16" d="M44.59,9.94,43.52,8.53a.09.09,0,0,1,0-.11l1-1.1a0,0,0,0,0,0-.08h-.87l-.06,0-1,1.07h-.05v-1a.06.06,0,0,0-.06-.06h-.8a.06.06,0,0,0-.06.06V10a.06.06,0,0,0,.06.06h.8a.06.06,0,0,0,.06-.06V9.47a.14.14,0,0,1,0-.06L42.9,9H43l.71,1a.1.1,0,0,0,.07,0h.8A.05.05,0,0,0,44.59,9.94Z" transform="translate(-3.11 -6.39)"/><path class="cls-16" d="M32.89,7.87h.81a.06.06,0,0,0,.06-.06V7.3a.06.06,0,0,0-.06-.06H32A.06.06,0,0,0,32,7.3V10A.05.05,0,0,0,32,10H33.7a.06.06,0,0,0,.06-.06V9.45a.06.06,0,0,0-.06-.06h-.82s-.06,0-.06-.07V9a.08.08,0,0,1,.07-.07h.81a.06.06,0,0,0,.06-.06v-.5a.06.06,0,0,0-.06-.06h-.81a.07.07,0,0,1-.07-.07V7.94A.07.07,0,0,1,32.89,7.87Z" transform="translate(-3.11 -6.39)"/><path class="cls-16" d="M35.06,7.87h.82a.06.06,0,0,0,.06-.06V7.3a.06.06,0,0,0-.06-.06H34.2a.06.06,0,0,0-.06.06V10a.05.05,0,0,0,.06.06h1.68a.06.06,0,0,0,.06-.06V9.45a.06.06,0,0,0-.06-.06h-.82s-.06,0-.06-.07V9s0-.07.06-.07h.82a.06.06,0,0,0,.06-.06v-.5a.06.06,0,0,0-.06-.06h-.82A.07.07,0,0,1,35,8.23V7.94A.07.07,0,0,1,35.06,7.87Z" transform="translate(-3.11 -6.39)"/><path class="cls-16" d="M26.65,7.87h.81a.06.06,0,0,0,.06-.06V7.3a.06.06,0,0,0-.06-.06H25.78a.06.06,0,0,0-.06.06V10a.06.06,0,0,0,.06.06h.74a.06.06,0,0,0,.06-.06V9a.08.08,0,0,1,.07-.07h.81a.06.06,0,0,0,.06-.06v-.5a.06.06,0,0,0-.06-.06h-.81a.07.07,0,0,1-.07-.07V7.94A.07.07,0,0,1,26.65,7.87Z" transform="translate(-3.11 -6.39)"/><path class="cls-16" d="M38.89,7.24H36.38a.07.07,0,0,0-.07.06V10s0,.06.07.06h.83a.06.06,0,0,0,.06-.06V9.08a0,0,0,0,1,0,0h1.59c.64,0,1.12-.33,1.12-.92S39.53,7.24,38.89,7.24Zm-.12,1.18H37.33a.06.06,0,0,1-.06-.06V8a.07.07,0,0,1,.06-.07h1.42c.2,0,.33.1.33.26S39,8.42,38.77,8.42Z" transform="translate(-3.11 -6.39)"/><path class="cls-17" d="M49.39,8.11h-.94l-.29-.5h1.52l.45-.77H47.61a.45.45,0,0,0-.39.23.41.41,0,0,0,0,.45l1.6,2.75a.46.46,0,0,0,.63.16.49.49,0,0,0,.16-.16l0-.09-.74-1.27Z" transform="translate(-3.11 -6.39)"/><path class="cls-17" d="M51.22,7.07a.45.45,0,0,0-.39-.23h-.11L49.51,8.91l.45.77,1.26-2.17A.43.43,0,0,0,51.22,7.07Z" transform="translate(-3.11 -6.39)"/><path class="cls-18" d="M65,9a.07.07,0,0,0-.06,0c-.1.32-.29.54-.59.54a.8.8,0,0,1-.7-.89c0-.52.29-.89.7-.89s.5.21.6.54c0,0,0,0,0,0h.69a.05.05,0,0,0,0,0h0a1.3,1.3,0,0,0-1.39-1.09,1.36,1.36,0,0,0-1.48,1.46,1.37,1.37,0,0,0,1.48,1.47,1.31,1.31,0,0,0,1.39-1.09s0-.06,0-.06H65ZM62.31,7.29h-.66a.06.06,0,0,0-.06,0V10s0,.05.06.05h.66s.06,0,.06-.05V7.34a0,0,0,0,0,0,0Zm-8.26.47V7.34s0,0-.06,0H52.36a0,0,0,0,0,0,0V10a0,0,0,0,0,0,.05H53a.06.06,0,0,0,.06-.05V9a.06.06,0,0,1,0-.06H54a0,0,0,0,0,0-.05V8.43a0,0,0,0,0,0,0h-.86a.06.06,0,0,1,0-.06V7.87a.06.06,0,0,1,0-.06H54a.05.05,0,0,0,0,0Zm5.11-.42v.42a.06.06,0,0,0,.05.06h.46a0,0,0,0,1,0,0V10a.06.06,0,0,0,.06.05h.67a0,0,0,0,0,0-.05h0V7.87a.06.06,0,0,1,.06-.06H61a.06.06,0,0,0,.06-.06V7.34a.06.06,0,0,0-.06,0H59.22S59.16,7.31,59.16,7.34ZM56.31,9.58V10a0,0,0,0,1-.05.05H54.62a0,0,0,0,1,0-.05V7.34a0,0,0,0,1,0,0h.67a.06.06,0,0,1,.06,0V9.47a.06.06,0,0,0,.06.06h.85A0,0,0,0,1,56.31,9.58Zm2.74.42-.76-2.68s0,0,0,0h-.81s0,0,0,0L56.64,10a0,0,0,0,0,0,.05h.7s0,0,0,0l.08-.34a.08.08,0,0,1,.08-.07h.51a.08.08,0,0,1,.08.07l.07.34a.05.05,0,0,0,0,0H59S59.05,10,59.05,10Zm-1.4-.93s0,0,0-.05c0-.26.22-1,.22-1s0,0,0,0,0,0,0,0,.18.83.22,1a0,0,0,0,1,0,.05Zm9.86,1.06A1.37,1.37,0,0,1,66,8.67a1.48,1.48,0,0,1,3,0A1.36,1.36,0,0,1,67.51,10.13Zm0-2.35c-.41,0-.69.37-.69.89s.29.88.69.88a.79.79,0,0,0,.7-.88C68.21,8.15,67.93,7.78,67.51,7.78Zm3.26-.44V8.62s0,0,0,0L70,7.31l0,0h-.45a0,0,0,0,0,0,0V10a0,0,0,0,0,0,.05h.57a.06.06,0,0,0,.06-.05V8.71s0,0,0,0L70.89,10l0,0h.46a.06.06,0,0,0,.06-.05V7.34a.06.06,0,0,0-.06,0h-.57a.06.06,0,0,0-.06,0Z" transform="translate(-3.11 -6.39)"/><path class="cls-19" d="M8.56,7.29a1.25,1.25,0,0,1,1.35,1.3c0,.07,0,.18,0,.26s0,0,0,0H7.94a.61.61,0,0,0,.64.53A.51.51,0,0,0,9,9.13a.05.05,0,0,1,.05,0l.72.16s0,0,0,.05a1.29,1.29,0,0,1-1.27.75A1.32,1.32,0,0,1,7.13,8.68,1.33,1.33,0,0,1,8.56,7.29Zm.55,1.1a.5.5,0,0,0-.54-.47A.55.55,0,0,0,8,8.39Z" transform="translate(-3.11 -6.39)"/><path class="cls-19" d="M10.15,10V7.4s0,0,0,0h.75a0,0,0,0,1,0,0v.31a.86.86,0,0,1,.79-.42c.5,0,.92.34.92,1.1V10a0,0,0,0,1,0,0H11.9a0,0,0,0,1,0,0V8.51c0-.34-.18-.53-.44-.53s-.46.19-.46.6V10a0,0,0,0,1,0,0h-.75s0,0,0,0Z" transform="translate(-3.11 -6.39)"/><path class="cls-19" d="M12.73,7.37h.8l0,0,.59,2,.6-2,0,0h.79s0,0,0,0L14.7,10a.05.05,0,0,1,0,0h-1a.05.05,0,0,1-.05,0L12.7,7.42a0,0,0,0,1,0,0Z" transform="translate(-3.11 -6.39)"/><path class="cls-19" d="M17.34,10v-.4a.93.93,0,0,1-.86.51.82.82,0,0,1-.9-.78c0-.49.33-.85,1-.85H17a.23.23,0,0,0,.26-.27c0-.18-.19-.28-.42-.28a.44.44,0,0,0-.49.38s0,0,0,0l-.69-.11a.05.05,0,0,1,0,0,1.15,1.15,0,0,1,1.27-.85c.59,0,1.23.14,1.23,1.22V10a0,0,0,0,1,0,0h-.71a0,0,0,0,1,0,0Zm-.62-.48a.57.57,0,0,0,.58-.55h-.5c-.3,0-.4.12-.4.29s.15.26.32.26Z" transform="translate(-3.11 -6.39)"/><path class="cls-19" d="M18.24,8V7.4a0,0,0,0,1,0,0h.29a.25.25,0,0,0,.25-.25V6.67a0,0,0,0,1,0,0h.66s0,0,0,0v.7h.54s0,0,0,0V8s0,0,0,0h-.54V9a.37.37,0,0,0,.54.33s0,0,0,0v.61a0,0,0,0,1,0,.05,1.12,1.12,0,0,1-.29,0c-.63,0-1.06-.21-1.06-1.13V8h-.46A0,0,0,0,1,18.24,8Z" transform="translate(-3.11 -6.39)"/><path class="cls-19" d="M23.1,8.68a1.43,1.43,0,1,1-1.43-1.39A1.35,1.35,0,0,1,23.1,8.68Zm-.82,0a.62.62,0,1,0-1.22,0,.61.61,0,1,0,1.22,0Z" transform="translate(-3.11 -6.39)"/><circle class="cls-20" cx="1.82" cy="4.36" r="0.2"/><path class="cls-20" d="M6.11,9.36,5,9.49s0,0,0,0l1.13-.88a.26.26,0,0,0,.1-.25.27.27,0,0,0-.31-.23l-1.22.18a0,0,0,0,1,0,0L5.83,7.3a.51.51,0,0,0,0-.76.5.5,0,0,0-.71,0l-2,2a.36.36,0,0,0-.08.3.34.34,0,0,0,.39.27l1-.22s0,0,0,0l-1.17.75a.38.38,0,0,0-.17.43.4.4,0,0,0,.48.29L5.47,10s0,0,0,0l-.27.34a.1.1,0,0,0,.14.14l.9-.73a.21.21,0,0,0-.15-.38Z" transform="translate(-3.11 -6.39)"/><path class="cls-21" d="M81.37,7.31a.32.32,0,0,1,.49.3.33.33,0,0,1-.5.21A.31.31,0,0,1,81.37,7.31Z" transform="translate(-3.11 -6.39)"/><path class="cls-21" d="M74.16,7.37h.76c.25.65.5,1.32.76,2,.23-.66.48-1.32.72-2h.74v2.7h-.55V8.27l-.71,1.8h-.47l-.7-1.8v1.81h-.55Z" transform="translate(-3.11 -6.39)"/><path class="cls-21" d="M88.55,7.37h.69c.34.89.65,1.8,1,2.7H89.6c-.07-.2-.14-.4-.2-.6h-1l-.21.6h-.59C87.89,9.17,88.22,8.27,88.55,7.37Zm.33.62-.36,1h.71C89.12,8.66,89,8.33,88.88,8Z" transform="translate(-3.11 -6.39)"/><path class="cls-21" d="M80,7.53h.54v.56H81v.45h-.46c0,.33,0,.66,0,1,.09.15.31.07.45.09v.46a3.39,3.39,0,0,1-.71,0,.47.47,0,0,1-.3-.45c0-.35,0-.69,0-1h-.33V8.09H80Z" transform="translate(-3.11 -6.39)"/><path class="cls-21" d="M78.13,8.12a1.21,1.21,0,0,1,1.17.23,1.11,1.11,0,0,1,.16,1.24,1.13,1.13,0,0,1-1.63.27A1,1,0,0,1,78.13,8.12Zm.26.4c-.54.15-.44,1.16.15,1.13.44,0,.59-.57.41-.9A.49.49,0,0,0,78.39,8.52Z" transform="translate(-3.11 -6.39)"/><path class="cls-21" d="M81.27,8.09h.55v2h-.55Z" transform="translate(-3.11 -6.39)"/><path class="cls-21" d="M82.77,8.12a1.22,1.22,0,0,1,1,.08,1,1,0,0,1,0,1.72,1.17,1.17,0,0,1-1.35-.09A1,1,0,0,1,82.77,8.12Zm.25.4a.62.62,0,0,0-.32.79.49.49,0,0,0,.65.3.63.63,0,0,0,.24-.83A.47.47,0,0,0,83,8.52Z" transform="translate(-3.11 -6.39)"/><path class="cls-21" d="M84.5,8.09H85a2,2,0,0,1,0,.24.87.87,0,0,1,1.15-.1,1,1,0,0,1,.27.71v1.13H85.9c0-.36,0-.72,0-1.07a.53.53,0,0,0-.2-.45.46.46,0,0,0-.53.1.7.7,0,0,0-.12.4v1h-.54C84.5,9.41,84.5,8.75,84.5,8.09Z" transform="translate(-3.11 -6.39)"/><path class="cls-21" d="M90.43,8.09h.49c0,.09,0,.19,0,.29a.7.7,0,0,1,.67-.3v.5c-.25,0-.6,0-.65.31s0,.79,0,1.18h-.54Z" transform="translate(-3.11 -6.39)"/><path class="cls-21" d="M91.88,8.09h.49l0,.29a.7.7,0,0,1,.67-.3v.5c-.19,0-.41,0-.54.12a.63.63,0,0,0-.13.46v.91h-.54Z" transform="translate(-3.11 -6.39)"/><path class="cls-21" d="M93.53,8.24a1.25,1.25,0,0,1,1-.12.64.64,0,0,1,.49.56c0,.3,0,.6,0,.9l.19.05v.45c-.2,0-.47.05-.6-.14a.84.84,0,0,1,0-.17.85.85,0,0,1-1.15.19.58.58,0,0,1,0-.93,2.12,2.12,0,0,1,1.06-.14c0-.11,0-.23-.07-.31a.43.43,0,0,0-.69.14h-.52A.73.73,0,0,1,93.53,8.24Zm.37,1a.23.23,0,0,0,0,.42.49.49,0,0,0,.47-.07.52.52,0,0,0,.17-.39,2.16,2.16,0,0,0-.62,0Z" transform="translate(-3.11 -6.39)"/><path class="cls-21" d="M95.16,8.09h.58c.16.47.33.94.48,1.41l.48-1.42h.58c-.28.73-.57,1.46-.85,2.2-.08.2-.17.44-.39.51a2.32,2.32,0,0,1-.7,0v-.46a2.38,2.38,0,0,0,.38,0c.13,0,.16-.18.21-.28C95.67,9.42,95.42,8.75,95.16,8.09Z" transform="translate(-3.11 -6.39)"/></svg>